<svg width="25" height="17" viewBox="0 0 25 17" fill="none" xmlns="http://www.w3.org/2000/svg">
<path fill-rule="evenodd" clip-rule="evenodd" d="M1.19049 13.7091V3.29083C1.19049 2.60006 1.53425 1.93758 2.14614 1.44914C2.75803 0.960687 3.58793 0.686279 4.45328 0.686279H20.7672C21.6326 0.686279 22.4625 0.960687 23.0743 1.44914C23.6862 1.93758 24.03 2.60006 24.03 3.29083V13.7091C24.03 14.3998 23.6862 15.0623 23.0743 15.5507C22.4625 16.0392 21.6326 16.3136 20.7672 16.3136H4.45328C3.58793 16.3136 2.75803 16.0392 2.14614 15.5507C1.53425 15.0623 1.19049 14.3998 1.19049 13.7091Z" stroke="white" stroke-linecap="round" stroke-linejoin="round"/>
<path d="M4.45331 5.24414L12.6103 9.15097L20.7672 5.24414" stroke="white" stroke-linecap="round" stroke-linejoin="round"/>
</svg>
