<svg width="26" height="25" viewBox="0 0 26 25" fill="none" xmlns="http://www.w3.org/2000/svg">
<path fill-rule="evenodd" clip-rule="evenodd" d="M6.37819 2.72665C6.28819 2.61564 6.17469 2.52428 6.04521 2.45862C5.91572 2.39296 5.77321 2.3545 5.6271 2.34579C5.481 2.33707 5.33464 2.3583 5.1977 2.40806C5.06077 2.45783 4.9364 2.535 4.83282 2.63446L3.25657 4.15008C2.52044 4.8579 2.24907 5.86102 2.57244 6.74071C3.90612 10.3851 6.07607 13.694 8.92132 16.422C11.7584 19.1578 15.1996 21.2443 18.9898 22.5266C19.9047 22.836 20.9479 22.5766 21.6841 21.8688L23.2603 20.3532C23.3637 20.2535 23.4438 20.1338 23.4954 20.0021C23.547 19.8704 23.569 19.7296 23.5598 19.5891C23.5505 19.4486 23.5104 19.3116 23.442 19.1872C23.3735 19.0627 23.2784 18.9537 23.1628 18.8673L19.6496 16.2391C19.526 16.1468 19.3822 16.0826 19.2291 16.0515C19.0759 16.0204 18.9174 16.0231 18.7656 16.0595L15.4311 16.861C14.9856 16.9683 14.5189 16.9627 14.0764 16.845C13.6338 16.7272 13.2306 16.5013 12.9058 16.1891L9.16507 12.5907C8.84043 12.2785 8.60544 11.8907 8.48299 11.4652C8.36054 11.0396 8.35479 10.5909 8.46632 10.1626L9.29994 6.95633C9.33777 6.81029 9.3406 6.6579 9.30823 6.51066C9.27585 6.36341 9.20912 6.22516 9.11307 6.10633L6.37819 2.72665ZM3.68394 1.53133C3.95055 1.27514 4.27077 1.07639 4.62336 0.948267C4.97594 0.820142 5.35283 0.765574 5.72902 0.788181C6.10521 0.810789 6.47209 0.910056 6.80534 1.0794C7.13859 1.24874 7.43058 1.48428 7.66194 1.7704L10.3936 5.14852C10.8957 5.76727 11.0728 6.57508 10.8746 7.33602L10.0409 10.5438C9.99759 10.7103 9.9998 10.8847 10.0474 11.0501C10.0949 11.2155 10.1862 11.3662 10.3123 11.4876L14.0563 15.0845C14.1826 15.2057 14.3393 15.2935 14.5113 15.3392C14.6833 15.385 14.8647 15.3871 15.0378 15.3454L18.3723 14.5438C18.7634 14.4499 19.1716 14.4427 19.566 14.5229C19.9605 14.603 20.3308 14.7683 20.6489 15.0063L24.1622 17.6329C25.4248 18.5766 25.5418 20.372 24.4108 21.4579L22.8346 22.9735C21.7084 24.0563 20.0233 24.5329 18.4519 24.0016C14.4324 22.6412 10.7829 20.4282 7.77407 17.5266C4.75586 14.6337 2.45373 11.1246 1.03844 7.25946C0.485942 5.74852 0.981567 4.12821 2.10769 3.04383L3.68394 1.52977V1.53133Z" fill="white"/>
</svg>
